<svg xmlns="http://www.w3.org/2000/svg" width="83.992" height="83.992" viewBox="0 0 83.992 83.992"><g transform="translate(-10.999 -10.999)"><circle cx="42" cy="42" r="42" transform="translate(11 11)" fill="#06a099"/><path d="M62.1,78.436a1.554,1.554,0,0,1-1.824.48,2.462,2.462,0,0,1-1.336-1.456,6.4,6.4,0,0,1-.323-2,28,28,0,0,1,.165-4.272.931.931,0,0,0-1.366-.946l-2.643,1.411a8.056,8.056,0,0,0-4.369,2.808,7.409,7.409,0,0,0-.578.931,6.578,6.578,0,0,0-.571-.931,8.048,8.048,0,0,0-4.377-2.808l-2.688-1.434a.9.9,0,0,0-1.329.916,28.7,28.7,0,0,1,.173,4.324,6.186,6.186,0,0,1-.33,2,2.425,2.425,0,0,1-1.344,1.456,1.547,1.547,0,0,1-1.817-.48,4.054,4.054,0,0,0,.991,3.679,8.762,8.762,0,0,0,3.326,2.177,6.006,6.006,0,0,0,3.078.593,6.081,6.081,0,0,0,3.431-2.222,10.323,10.323,0,0,0,1.449-1.982,10.691,10.691,0,0,0,1.456,1.982,6.059,6.059,0,0,0,3.439,2.2,6.051,6.051,0,0,0,3.078-.593,8.732,8.732,0,0,0,3.341-2.155,4.039,4.039,0,0,0,.968-3.679Z" transform="translate(-12.573 -24.523)" fill="#2f4859"/><path d="M50.9,57.94a9.144,9.144,0,1,0,9.137,9.137A9.144,9.144,0,0,0,50.9,57.94Z" transform="translate(-13.646 -21.492)" fill="#2f4859"/><path d="M56.131,84.9V81.049L51.881,79.57h-.008l-4.249,1.479V84.9l-1.975.991v4.219H58.383V86.034Z" transform="translate(-14.618 -26.88)" fill="#f7be56"/><ellipse cx="6.907" cy="9.159" rx="6.907" ry="9.159" transform="translate(30.349 38.896)" fill="#fcd462"/><path d="M64.974,103.61,64.133,94.8a4.82,4.82,0,0,0-2.613-3.829L52.729,86.14v.4a4.572,4.572,0,0,1-8.506,0v-.4l-8.792,4.827A4.79,4.79,0,0,0,32.818,94.8L32,103.61H65.034Z" transform="translate(-11.218 -28.517)" fill="#b8166b"/><path d="M47.14,62.343s2.41,5.053,12.305,4.5l-1.374-4.5L54.46,59.46H51.029Z" transform="translate(-14.989 -21.871)" fill="#2f4859"/><path d="M86.709,71.348c.5-.083,1.059.7,1.224,1.749s-.1,1.967-.608,2.05-1.059-.706-1.231-1.757S86.2,71.431,86.709,71.348Z" transform="translate(-24.678 -24.831)" fill="#fcd462"/><path d="M97.6,81.3H91.206L90.17,86.683l3.919,4.459,4.542-4.459Z" transform="translate(-25.707 -27.311)" fill="#f7be56"/><path d="M104.5,71.578c-.511-.083-1.059.706-1.231,1.749s.105,1.967.616,2.05,1.059-.7,1.231-1.749S105.015,71.661,104.5,71.578Z" transform="translate(-28.958 -24.888)" fill="#fcd462"/><path d="M93.637,60.47c-3.619,0-6.547,4.077-6.547,9.107s2.936,9.114,6.547,9.114,6.539-4.084,6.539-9.114S97.248,60.47,93.637,60.47Z" transform="translate(-24.94 -22.122)" fill="#fcd462"/><path d="M100.224,60.881a6.727,6.727,0,0,0-3.476-1.186c-1.044-2.928-7.373-1.029-9.287.668-2.252,1.967-.751,7.027-.646,9.362a.428.428,0,0,0,.413.4.413.413,0,0,0,.413-.375c.158-1.667.135-6.006.953-6.314,2.252,3.829,6.246,3.754,9.76,2.462.586.683.826,2.44.923,3.836a.42.42,0,0,0,.413.39.428.428,0,0,0,.42-.4c.165-2.335,1.6-7.6.113-8.844Z" transform="translate(-24.725 -21.55)" fill="#2f4859"/><path d="M106.932,103.927H73.59c.233-4.4.751-9.632,1.839-11.719,1.5-2.905,6.449-4.167,8.807-4.617h.18l.541-.1h.285l.323-.045.571-.038h.105a4.324,4.324,0,0,0,8.116,0h.1l.578.038.308.045H95.6l.878.158c2.417.473,7.162,1.734,8.671,4.587,1.036,2.057,1.569,7.29,1.787,11.689Z" transform="translate(-21.577 -28.833)" fill="#ebf0f3"/><path d="M74.645,40.59H62.61v7.778h1.5v3.544l2.583-3.544h7.951Z" transform="translate(-18.842 -17.17)" fill="#ebf0f3"/><path d="M69.88,46.12H81.915V53.9h-1.5v3.544L77.831,53.9H69.88Z" transform="translate(-20.653 -18.548)" fill="#b8166b"/><g transform="translate(51.138 29.002)"><path d="M72.24,48.13h8.418v.345H72.24Z" transform="translate(-72.272 -48.112)" fill="#ea6453"/><path d="M72.24,50.01h8.418v.345H72.24Z" transform="translate(-72.272 -48.58)" fill="#ea6453"/><path d="M72.24,51.89h8.418v.345H72.24Z" transform="translate(-72.272 -49.048)" fill="#ea6453"/><path d="M72.24,53.77h8.418v.345H72.24Z" transform="translate(-72.272 -49.517)" fill="#ea6453"/></g></g></svg>