<svg width="48" height="48" viewBox="0 0 48 48" fill="none" xmlns="http://www.w3.org/2000/svg">
<path d="M43.5039 14.7787L43.875 45.627C43.8731 46.2558 43.6223 46.8583 43.1773 47.3029C42.7323 47.7475 42.1293 47.9981 41.5 48H10.625C9.99569 47.9981 9.39269 47.7475 8.9477 47.3029C8.5027 46.8583 8.25188 46.2558 8.25 45.627H39.125C39.7543 45.6252 40.3573 45.3746 40.8023 44.93C41.2473 44.4853 41.4981 43.8829 41.5 43.2541L41.2773 11.8125L43.5039 14.7787Z" fill="#C4C4CA"/>
<path d="M42.4561 13.3333V44.1481C42.4542 44.7762 42.2038 45.378 41.7597 45.8221C41.3156 46.2663 40.7138 46.5166 40.0857 46.5185H9.27088C8.6428 46.5166 8.04097 46.2663 7.59685 45.8221C7.15272 45.378 6.90239 44.7762 6.90051 44.1481V6.22218C6.90239 5.59409 7.15272 4.99227 7.59685 4.54814C8.04097 4.10402 8.6428 3.85368 9.27088 3.85181H35.345V12.1481C35.345 12.4624 35.4698 12.7639 35.6921 12.9862C35.9143 13.2084 36.2158 13.3333 36.5301 13.3333H42.4561Z" fill="#DFDFE2"/>
<path d="M35.345 3.85181L42.4561 13.3333H36.5302C36.2158 13.3333 35.9144 13.2084 35.6921 12.9861C35.4698 12.7639 35.345 12.4624 35.345 12.1481V3.85181Z" fill="#A9A9B2"/>
<path d="M41.0682 11.4075V42.2223C41.0664 42.8504 40.816 43.4522 40.3719 43.8963C39.9278 44.3405 39.326 44.5908 38.6979 44.5927H7.88307C7.25498 44.5908 6.65316 44.3405 6.20903 43.8963C5.76491 43.4522 5.51457 42.8504 5.5127 42.2223V4.2964C5.51457 3.66831 5.76491 3.06649 6.20903 2.62236C6.65316 2.17824 7.25498 1.9279 7.88307 1.92603H33.9571V10.2223C33.9571 10.5367 34.082 10.8381 34.3043 11.0604C34.5265 11.2826 34.828 11.4075 35.1423 11.4075H41.0682Z" fill="#F1F2F3"/>
<path d="M33.9572 1.92603L41.0683 11.4075H35.1423C34.828 11.4075 34.5266 11.2826 34.3043 11.0604C34.082 10.8381 33.9572 10.5367 33.9572 10.2223V1.92603Z" fill="#C4C4CA"/>
<path d="M39.6562 9.47917V40.2865C39.6544 40.9144 39.4042 41.5161 38.9604 41.9601C38.5166 42.4041 37.9152 42.6544 37.2875 42.6562H6.49375C5.8661 42.6544 5.26468 42.4041 4.82086 41.9601C4.37704 41.5161 4.12687 40.9144 4.125 40.2865V2.36979C4.12687 1.74186 4.37704 1.14018 4.82086 0.696168C5.26468 0.252151 5.8661 0.00187537 6.49375 0H32.55V8.29427C32.55 8.60853 32.6748 8.90991 32.8969 9.13212C33.119 9.35433 33.4203 9.47917 33.7344 9.47917H39.6562Z" fill="#FAFAFA"/>
<path d="M32.5312 0L39.6562 9.46875H33.7188C33.4038 9.46875 33.1018 9.34405 32.8791 9.12208C32.6564 8.90012 32.5312 8.59906 32.5312 8.28516V0Z" fill="#DFDFE2"/>
<path d="M10.0312 11.8594C10.0312 11.2122 10.5559 10.6875 11.2031 10.6875H25.4531C26.1003 10.6875 26.625 11.2122 26.625 11.8594C26.625 12.5066 26.1003 13.0312 25.4531 13.0312H11.2031C10.5559 13.0312 10.0312 12.5066 10.0312 11.8594Z" fill="#43444C"/>
<path d="M10.0312 7.07812C10.0312 6.43092 10.5559 5.90625 11.2031 5.90625C11.8503 5.90625 12.375 6.43092 12.375 7.07812C12.375 7.72533 11.8503 8.25 11.2031 8.25C10.5559 8.25 10.0312 7.72533 10.0312 7.07812Z" fill="#43444C"/>
<path d="M14.8125 7.07812C14.8125 6.43092 15.3372 5.90625 15.9844 5.90625H25.4531C26.1003 5.90625 26.625 6.43092 26.625 7.07812C26.625 7.72533 26.1003 8.25 25.4531 8.25H15.9844C15.3372 8.25 14.8125 7.72533 14.8125 7.07812Z" fill="#43444C"/>
<path d="M10.0312 16.5938C10.0312 15.9207 10.5769 15.375 11.25 15.375H30.1875C30.8606 15.375 31.4062 15.9207 31.4062 16.5938C31.4062 17.2668 30.8606 17.8125 30.1875 17.8125H11.25C10.5769 17.8125 10.0312 17.2668 10.0312 16.5938Z" fill="#43444C"/>
<path d="M10.0312 21.3281C10.0312 20.6809 10.5559 20.1562 11.2031 20.1562H25.4531C26.1003 20.1562 26.625 20.6809 26.625 21.3281C26.625 21.9753 26.1003 22.5 25.4531 22.5H11.2031C10.5559 22.5 10.0312 21.9753 10.0312 21.3281Z" fill="#43444C"/>
<path d="M10.0312 26.0625C10.0312 25.3894 10.5769 24.8438 11.25 24.8438H15.9375C16.6106 24.8438 17.1562 25.3894 17.1562 26.0625C17.1562 26.7356 16.6106 27.2812 15.9375 27.2812H11.25C10.5769 27.2812 10.0312 26.7356 10.0312 26.0625Z" fill="#43444C"/>
<path d="M19.5 26.0625C19.5 25.3894 20.0457 24.8438 20.7188 24.8438C21.3918 24.8438 21.9375 25.3894 21.9375 26.0625C21.9375 26.7356 21.3918 27.2812 20.7188 27.2812C20.0457 27.2812 19.5 26.7356 19.5 26.0625Z" fill="#43444C"/>
<path d="M24.2812 26.0156C24.2812 25.3684 24.8059 24.8438 25.4531 24.8438C26.1003 24.8438 26.625 25.3684 26.625 26.0156V26.1094C26.625 26.7566 26.1003 27.2812 25.4531 27.2812C24.8059 27.2812 24.2812 26.7566 24.2812 26.1094V26.0156Z" fill="#43444C"/>
<path d="M10.0312 30.7969C10.0312 30.1497 10.5559 29.625 11.2031 29.625H13.6406C14.2878 29.625 14.8125 30.1497 14.8125 30.7969C14.8125 31.4441 14.2878 31.9688 13.6406 31.9688H11.2031C10.5559 31.9688 10.0312 31.4441 10.0312 30.7969Z" fill="#43444C"/>
<path d="M17.1562 30.7969C17.1562 30.1497 17.6809 29.625 18.3281 29.625C18.9753 29.625 19.5 30.1497 19.5 30.7969C19.5 31.4441 18.9753 31.9688 18.3281 31.9688C17.6809 31.9688 17.1562 31.4441 17.1562 30.7969Z" fill="#43444C"/>
<path d="M21.9375 30.7969C21.9375 30.1497 22.4622 29.625 23.1094 29.625H25.4531C26.1003 29.625 26.625 30.1497 26.625 30.7969C26.625 31.4441 26.1003 31.9688 25.4531 31.9688H23.1094C22.4622 31.9688 21.9375 31.4441 21.9375 30.7969Z" fill="#43444C"/>
<path d="M10.0312 35.5781C10.0312 34.9309 10.5559 34.4062 11.2031 34.4062H18.3281C18.9753 34.4062 19.5 34.9309 19.5 35.5781C19.5 36.2253 18.9753 36.75 18.3281 36.75H11.2031C10.5559 36.75 10.0312 36.2253 10.0312 35.5781Z" fill="#43444C"/>
</svg>
