<svg xmlns="http://www.w3.org/2000/svg" width="78" height="78" viewBox="0 0 78 78"><circle cx="39" cy="39" r="39" fill="#b8166b"/><path d="M210.585,132.413l-23.807-23.807-17.216,2.64-13.118,1.693,10.343,10.343-7.329,4.378,21.185,21.185-24.2,8.216L169.379,170c.739.042,1.482.065,2.232.065A39,39,0,0,0,210.585,132.413Z" transform="translate(-132.611 -92.061)" fill="#721c49"/><path d="M196.667,144.448v-13h-26v13A4.333,4.333,0,0,0,175,148.781h0a4.333,4.333,0,0,1,4.333,4.333h0A4.333,4.333,0,0,1,175,157.448h0a4.333,4.333,0,0,0-4.333,4.333v13h26v-13a4.333,4.333,0,0,0-4.333-4.333h0A4.333,4.333,0,0,1,188,153.114h0a4.333,4.333,0,0,1,4.333-4.333h0A4.333,4.333,0,0,0,196.667,144.448Z" transform="translate(-144.667 -111.423)" fill="#e6f3ff"/><path d="M264.911,148.782a4.333,4.333,0,0,0,4.333-4.333v-13H256.288v43.333h12.956v-13a4.333,4.333,0,0,0-4.333-4.333,4.333,4.333,0,0,1-4.333-4.333h0A4.333,4.333,0,0,1,264.911,148.782Z" transform="translate(-217.244 -111.424)" fill="#cfdbe6"/><path d="M216.444,187.606v-.131H199.11v.131a8.659,8.659,0,0,0,3.907,7.244,5.9,5.9,0,0,1,2.593,4.947v5.19a7.36,7.36,0,0,1-2.948,5.955,8.654,8.654,0,0,0-3.552,7v4.333h17.333V217.94a8.655,8.655,0,0,0-3.552-7,7.361,7.361,0,0,1-2.948-5.955V199.8a5.9,5.9,0,0,1,2.593-4.947A8.66,8.66,0,0,0,216.444,187.606Z" transform="translate(-168.777 -158.914)" fill="#ffe529"/><path d="M261,194.85a8.659,8.659,0,0,0,3.907-7.244v-.131h-8.623v34.8h8.623V217.94a8.655,8.655,0,0,0-3.552-7,7.361,7.361,0,0,1-2.948-5.955V199.8A5.9,5.9,0,0,1,261,194.85Z" transform="translate(-217.244 -158.914)" fill="#f9b54c"/><g transform="translate(23.833 16.545)"><rect width="30.333" height="4.333" fill="#324a5e"/><rect width="30" height="4" transform="translate(0.167 44.455)" fill="#324a5e"/></g><g transform="translate(39.045 16.545)"><rect width="15.122" height="4.333" fill="#2b3b4e"/><rect width="15.122" height="4.333" transform="translate(0 44.121)" fill="#2b3b4e"/></g></svg>