<?xml version="1.0" encoding="utf-8"?>
<!-- Generator: Adobe Illustrator 26.0.2, SVG Export Plug-In . SVG Version: 6.00 Build 0)  -->
<svg version="1.1" id="Calque_1" xmlns="http://www.w3.org/2000/svg" xmlns:xlink="http://www.w3.org/1999/xlink" x="0px" y="0px"
	 viewBox="0 0 761.1 322.2" style="enable-background:new 0 0 761.1 322.2;" xml:space="preserve">
<style type="text/css">
	.st0{fill:#FFD24B;}
</style>
<g>
	<g>
		<path class="st0" d="M102.4,173.3V82.7H83.7v92.5c0,39.5,22.9,63.3,59.2,63.3h39.4l8-17.8h-42.1
			C118.4,220.8,102.4,205.5,102.4,173.3z"/>
		<path class="st0" d="M178.7,150.2V82.7h-17.4v79.4c0,2.7,2,4.4,4.4,4.4H215l7.3-16.4H178.7z"/>
		<path class="st0" d="M140.9,171.3V82.7h-18v89.2c0,19.3,11.3,30.4,31.2,30.4h44.8l7.8-17.3h-51.6
			C145.8,185,140.9,180.6,140.9,171.3z"/>
	</g>
	<g>
		<path class="st0" d="M381.3,81.8c-3.6,0-6,2.5-6,6s2.5,6.1,6,6.1c3.6,0,6-2.6,6-6C387.3,84.4,385,81.8,381.3,81.8z"/>
		<path class="st0" d="M340.5,189.4c-14.5,0-24.4,9.9-24.4,24.7c0,16,9.6,25.4,24.7,25.4c11.1,0,20.1-6.1,22.2-14.8h-10.2
			c-1.7,3.9-6.1,6.6-12.1,6.6c-8.3,0-13.5-4.5-14.6-13.3h37.5c0.2-1.3,0.3-2.8,0.3-3.9C363.8,199.3,355.3,189.4,340.5,189.4z
			 M326.1,210.2c1.2-7.7,6.2-12.6,14.2-12.6c8.1,0,13.8,5.4,13.8,12.6H326.1z"/>
		<path class="st0" d="M347.9,101c-6.5,0-12.2,2.5-15.7,6.8V102h-9.6v48.1h9.6l0.1-27.6c0-8,4.6-12.9,12.1-12.9
			c7.2,0,11.1,4.4,11.1,12.9v27.6h9.6v-29.8C365.1,108.8,359.3,101,347.9,101z"/>
		<rect x="376.4" y="102" class="st0" width="9.6" height="48.2"/>
		<path class="st0" d="M297.8,197.1c-3.5-4.4-9.6-7.7-17-7.7c-13.6,0-23.6,10.3-23.6,25.2c0,14.9,9.7,24.8,23.4,24.8
			c7.8,0,13.8-2.4,17.2-7.6v6.6h9.6v-67.4h-9.6V197.1z M282.7,231c-9.8,0-15.4-7.2-15.4-16.4c0-9.1,5.7-16.4,15.4-16.4
			c9.1,0,15.5,7.2,15.5,16.4C298.2,223.8,292.2,231,282.7,231z"/>
		<path class="st0" d="M510.3,110.7h16.9V102h-14c-7.3,0-12.6,5.3-12.6,12.6v35.5h9.6V110.7z"/>
		<polygon class="st0" points="669,82.8 657.6,82.8 651.2,96.7 659.9,96.7 		"/>
		<path class="st0" d="M301.2,124.2c0,11.6-5.1,17.6-16.3,17.6c-11.1,0-16.5-6.1-16.5-17.6V82.8h-10.3V124
			c0,18.2,9.8,27.2,26.8,27.2c16.9,0,26.6-9,26.6-27.2V82.8h-10.3V124.2z"/>
		<polygon class="st0" points="422.6,150.2 440.9,102 430.5,102 416.6,142.1 402.6,102 392.2,102 410.5,150.2 		"/>
		<path class="st0" d="M557.5,122l-11.1-1.8c-3.8-0.6-5.8-2.4-5.8-5.5c0-3.9,3.9-6,9.5-6c6.5,0,10.1,2.9,10.5,7.7h9.3
			c-0.5-10-7.3-15.5-19.8-15.5c-11.9,0-18.5,5.8-18.5,14.2c0,8.1,5,12.2,13.2,13.6l10.2,1.6c4.6,0.8,6.5,3.8,6.5,6.5
			c0,3.9-4,6.2-10.7,6.2c-7.2,0-10.6-3.6-11.2-7.4h-9.5c0.6,9.4,8.6,15.5,20.7,15.5c12.4,0,19.9-5.3,19.9-14.8
			C570.8,128,566.2,123.5,557.5,122z"/>
		<path class="st0" d="M585.4,81.8c-3.6,0-6,2.5-6,6s2.5,6.1,6,6.1c3.6,0,6-2.6,6-6C591.3,84.4,589,81.8,585.4,81.8z"/>
		<rect x="580.5" y="102" class="st0" width="9.6" height="48.2"/>
		<polygon class="st0" points="405.2,171.1 394.9,171.1 394.9,238.5 433.8,238.5 433.8,229.7 405.2,229.7 		"/>
		<path class="st0" d="M611.7,87H602v50.8c0,7.3,5.2,12.4,12.5,12.4h12v-8.7h-14.9v-30.8h14.9V102h-14.9V87z"/>
		<path class="st0" d="M679,125.7c0-14.7-8.5-24.7-23.3-24.7c-14.5,0-24.4,9.9-24.4,24.7c0,16,9.6,25.4,24.7,25.4
			c11.1,0,20.1-6.1,22.2-14.8H668c-1.7,3.9-6.1,6.6-12.1,6.6c-8.3,0-13.5-4.5-14.6-13.3h37.5C678.9,128.4,679,126.9,679,125.7z
			 M641.2,121.9c1.2-7.7,6.2-12.6,14.2-12.6c8.1,0,13.8,5.4,13.8,12.6H641.2z"/>
		<path class="st0" d="M538.5,189.4c-14.5,0-24.4,9.9-24.4,24.7c0,16,9.6,25.4,24.7,25.4c11.1,0,20.1-6.1,22.2-14.8h-10.2
			c-1.7,3.9-6.1,6.6-12.1,6.6c-8.3,0-13.5-4.5-14.6-13.3h37.5c0.2-1.3,0.3-2.8,0.3-3.9C561.8,199.3,553.3,189.4,538.5,189.4z
			 M524.1,210.2c1.2-7.7,6.2-12.6,14.2-12.6c8.1,0,13.8,5.4,13.8,12.6H524.1z"/>
		<path class="st0" d="M445.7,170.1c-3.6,0-6,2.5-6,6s2.5,6.1,6,6.1c3.6,0,6-2.6,6-6C451.6,172.7,449.3,170.1,445.7,170.1z"/>
		<path class="st0" d="M499.3,171.1h-9.6v55.1c0,7.7,4.5,12.3,12.4,12.3h9.6v-8.9h-12.4V171.1z"/>
		<rect x="440.8" y="190.4" class="st0" width="9.6" height="48.2"/>
		<path class="st0" d="M472,171.1h-9.6v55.1c0,7.7,4.5,12.3,12.4,12.3h9.6v-8.9H472V171.1z"/>
		<path class="st0" d="M480,136.3c-1.7,3.9-6.1,6.6-12.1,6.6c-8.3,0-13.5-4.5-14.6-13.3h37.5c0.2-1.3,0.3-2.8,0.3-3.9
			c0-14.7-8.5-24.7-23.3-24.7c-14.5,0-24.4,9.9-24.4,24.7c0,16,9.6,25.4,24.7,25.4c11.1,0,20.1-6.1,22.2-14.8H480z M467.4,109.2
			c8.1,0,13.8,5.4,13.8,12.6h-27.9C454.4,114.1,459.4,109.2,467.4,109.2z"/>
	</g>
</g>
</svg>
