<svg xmlns="http://www.w3.org/2000/svg" width="83" height="83" viewBox="0 0 83 83"><g transform="translate(-0.38 -0.38)"><g transform="translate(0.196 0.196)"><circle cx="41.5" cy="41.5" r="41.5" transform="translate(0.185 0.185)" fill="#fedd55"/><path d="M161.73,120.383a41.615,41.615,0,0,0-2.165-13.289L146.489,94.019,93.636,146.872l12.984,12.961a41.695,41.695,0,0,0,55.109-39.45Z" transform="translate(-78.545 -78.866)" fill="#fcc63d"/><g transform="translate(13.375 8.51)"><circle cx="16.929" cy="16.929" r="16.929" transform="translate(21.576 5.778)" fill="#c1e1df"/><path d="M270.059,143.108a16.93,16.93,0,0,1-23.942,0l23.942-23.942a16.929,16.929,0,0,1,0,23.941Z" transform="translate(-219.583 -108.43)" fill="#86ddd9"/><path d="M0,0H11.719V20.176H0Z" transform="translate(20.397 32.524) rotate(45)" fill="#b8166b"/><path d="M0,0H20.178V5.859H0Z" transform="translate(10.263 50.939) rotate(-45)" fill="#79154a"/><g transform="translate(15.798)"><path d="M186.8,91.974a22.718,22.718,0,1,1,32.128,0A22.744,22.744,0,0,1,186.8,91.974ZM213.171,65.6a14.58,14.58,0,1,0,0,20.619A14.6,14.6,0,0,0,213.171,65.6Z" transform="translate(-180.154 -53.202)" fill="#13505d"/></g><g transform="translate(22.442 6.644)"><path d="M253.1,94.022l-5.754,5.754a14.579,14.579,0,1,1-20.618,20.618l-5.754,5.754A22.717,22.717,0,1,0,253.1,94.022Z" transform="translate(-220.973 -94.022)" fill="#0f3a44"/></g><path d="M84.808,351.255a5.859,5.859,0,0,1,0-8.287l4.834-4.834,8.287,8.287-4.834,4.834A5.859,5.859,0,0,1,84.808,351.255Z" transform="translate(-83.092 -291.759)" fill="#13505d"/><path d="M106.756,367.735l-4.834,4.834a5.86,5.86,0,0,1-8.287,0l8.977-8.977Z" transform="translate(-91.92 -313.072)" fill="#0f3a44"/></g></g></g></svg>