<?xml version="1.0" encoding="utf-8"?>
<!-- Generator: Adobe Illustrator 25.4.1, SVG Export Plug-In . SVG Version: 6.00 Build 0)  -->
<svg version="1.1" id="Calque_1" xmlns="http://www.w3.org/2000/svg" xmlns:xlink="http://www.w3.org/1999/xlink" x="0px" y="0px"
	 viewBox="0 0 500 500" style="enable-background:new 0 0 500 500;" xml:space="preserve">
<style type="text/css">
	.st0{clip-path:url(#SVGID_00000076604457045340973050000003850046414983711887_);fill:#1D428A;}
	.st1{clip-path:url(#SVGID_00000076604457045340973050000003850046414983711887_);fill:#720062;}
	.st2{clip-path:url(#SVGID_00000076604457045340973050000003850046414983711887_);}
	.st3{fill:#F9423A;}
	.st4{opacity:0.26;fill:#7C4B31;}
	.st5{fill:#FCE300;}
	.st6{fill:#00B398;}
	.st7{fill:#AE2573;}
	.st8{fill:#1D428A;}
	.st9{clip-path:url(#SVGID_00000076604457045340973050000003850046414983711887_);fill:#00B398;}
	.st10{clip-path:url(#SVGID_00000011711555518044917620000010148308676259168153_);fill:#1D428A;}
	.st11{clip-path:url(#SVGID_00000011711555518044917620000010148308676259168153_);fill:#720062;}
	.st12{clip-path:url(#SVGID_00000011711555518044917620000010148308676259168153_);}
	.st13{clip-path:url(#SVGID_00000011711555518044917620000010148308676259168153_);fill:#00B398;}
	.st14{clip-path:url(#SVGID_00000170997691460812570310000003318718981083602572_);fill:#1D428A;}
	.st15{clip-path:url(#SVGID_00000170997691460812570310000003318718981083602572_);fill:#720062;}
	.st16{clip-path:url(#SVGID_00000170997691460812570310000003318718981083602572_);}
	.st17{clip-path:url(#SVGID_00000170997691460812570310000003318718981083602572_);fill:#00B398;}
	.st18{clip-path:url(#SVGID_00000039105318861877955400000007847908973791629230_);fill:#1D428A;}
	.st19{clip-path:url(#SVGID_00000039105318861877955400000007847908973791629230_);fill:#720062;}
	.st20{clip-path:url(#SVGID_00000039105318861877955400000007847908973791629230_);}
	.st21{clip-path:url(#SVGID_00000039105318861877955400000007847908973791629230_);fill:#00B398;}
	.st22{clip-path:url(#SVGID_00000180343261352098063830000014841148478531965063_);fill:#1D428A;}
	.st23{clip-path:url(#SVGID_00000180343261352098063830000014841148478531965063_);fill:#78BE20;}
	.st24{clip-path:url(#SVGID_00000180343261352098063830000014841148478531965063_);}
	.st25{fill:#78BE20;}
	.st26{clip-path:url(#SVGID_00000180343261352098063830000014841148478531965063_);fill:#AE2573;}
	.st27{clip-path:url(#SVGID_00000121979036391063062310000007092925812962146715_);fill:#FCE300;}
	.st28{clip-path:url(#SVGID_00000121979036391063062310000007092925812962146715_);fill:#AE2573;}
	.st29{clip-path:url(#SVGID_00000121979036391063062310000007092925812962146715_);}
	.st30{opacity:0.26;fill:#7FA0AC;}
	.st31{clip-path:url(#SVGID_00000152247607458512701120000001607130753858123657_);fill:#D2948B;}
	.st32{clip-path:url(#SVGID_00000152247607458512701120000001607130753858123657_);fill:#AE2573;}
	.st33{clip-path:url(#SVGID_00000152247607458512701120000001607130753858123657_);}
	.st34{fill:#F9E8D8;}
	.st35{clip-path:url(#SVGID_00000152247607458512701120000001607130753858123657_);fill:#FCE300;}
	.st36{clip-path:url(#SVGID_00000144334980055660018920000002377224726051564419_);fill:#1D428A;}
	.st37{clip-path:url(#SVGID_00000144334980055660018920000002377224726051564419_);fill:#720062;}
	.st38{clip-path:url(#SVGID_00000144334980055660018920000002377224726051564419_);}
	.st39{clip-path:url(#SVGID_00000144334980055660018920000002377224726051564419_);fill:#00B398;}
	.st40{clip-path:url(#SVGID_00000021826714884532593280000002206627194368723624_);fill:#1D428A;}
	.st41{clip-path:url(#SVGID_00000021826714884532593280000002206627194368723624_);fill:#720062;}
	.st42{clip-path:url(#SVGID_00000021826714884532593280000002206627194368723624_);}
	.st43{clip-path:url(#SVGID_00000021826714884532593280000002206627194368723624_);fill:#00B398;}
	.st44{clip-path:url(#SVGID_00000157290258963582196280000000007164224489642905_);fill:#1D428A;}
	.st45{clip-path:url(#SVGID_00000157290258963582196280000000007164224489642905_);fill:#720062;}
	.st46{clip-path:url(#SVGID_00000157290258963582196280000000007164224489642905_);}
	.st47{clip-path:url(#SVGID_00000157290258963582196280000000007164224489642905_);fill:#00B398;}
	.st48{fill:#FFFFFF;}
	.st49{fill:#8DC8E8;}
	.st50{fill:#A4D3ED;}
	.st51{fill:#008672;}
	.st52{fill:#F1F2F2;}
	.st53{clip-path:url(#SVGID_00000146463425395128114660000016103624541600157082_);fill:#1D428A;}
	.st54{clip-path:url(#SVGID_00000146463425395128114660000016103624541600157082_);fill:#720062;}
	.st55{clip-path:url(#SVGID_00000146463425395128114660000016103624541600157082_);}
	.st56{clip-path:url(#SVGID_00000146463425395128114660000016103624541600157082_);fill:#00B398;}
	.st57{clip-path:url(#SVGID_00000014604015092216543690000009096225944583268487_);fill:#1D428A;}
	.st58{clip-path:url(#SVGID_00000014604015092216543690000009096225944583268487_);fill:#720062;}
	.st59{clip-path:url(#SVGID_00000014604015092216543690000009096225944583268487_);}
	.st60{clip-path:url(#SVGID_00000014604015092216543690000009096225944583268487_);fill:#00B398;}
	.st61{clip-path:url(#SVGID_00000020358672525897754120000013252411076997933981_);}
	.st62{fill:#D5CB9F;}
	.st63{fill:#720062;}
	.st64{fill:#EF8070;}
	.st65{clip-path:url(#SVGID_00000121254157106802286830000016763694335644288177_);}
	.st66{clip-path:url(#SVGID_00000079480756676603911460000006721640064780417981_);}
	.st67{fill:#EFCAA6;}
	.st68{fill:#D2948B;}
	.st69{fill:#F4D9BF;}
	.st70{fill:none;stroke:#FFFFFF;stroke-width:3;stroke-miterlimit:10;}
	.st71{clip-path:url(#SVGID_00000161595108532877321830000014118100664089756844_);fill:#D2948B;}
	.st72{clip-path:url(#SVGID_00000161595108532877321830000014118100664089756844_);fill:#AE2573;}
	.st73{clip-path:url(#SVGID_00000161595108532877321830000014118100664089756844_);}
	.st74{clip-path:url(#SVGID_00000161595108532877321830000014118100664089756844_);fill:#FCE300;}
	.st75{clip-path:url(#SVGID_00000035515510188866498120000011562938127602826399_);fill:#D2948B;}
	.st76{clip-path:url(#SVGID_00000035515510188866498120000011562938127602826399_);fill:#AE2573;}
	.st77{clip-path:url(#SVGID_00000035515510188866498120000011562938127602826399_);}
	.st78{clip-path:url(#SVGID_00000035515510188866498120000011562938127602826399_);fill:#FCE300;}
	.st79{clip-path:url(#SVGID_00000051359921814224452680000000799795060544712866_);fill:#D2948B;}
	.st80{clip-path:url(#SVGID_00000051359921814224452680000000799795060544712866_);fill:#AE2573;}
	.st81{clip-path:url(#SVGID_00000051359921814224452680000000799795060544712866_);}
	.st82{clip-path:url(#SVGID_00000051359921814224452680000000799795060544712866_);fill:#FCE300;}
</style>
<g>
	<defs>
		<circle id="SVGID_00000107580310560428240100000001335356302170380187_" cx="250.8" cy="250.1" r="250"/>
	</defs>
	<use xlink:href="#SVGID_00000107580310560428240100000001335356302170380187_"  style="overflow:visible;fill:#063942;"/>
	<clipPath id="SVGID_00000051354619815575168170000012446398234412174987_">
		<use xlink:href="#SVGID_00000107580310560428240100000001335356302170380187_"  style="overflow:visible;"/>
	</clipPath>
	<path style="clip-path:url(#SVGID_00000051354619815575168170000012446398234412174987_);fill:#D2948B;" d="M553.1,498.8
		c-4,7.4-102.8,5.9-151.9,5.9L270,356.1c0,0-5.6-3.8-13-9.5c-12.1-9.1-29.2-23.1-36-33.8c-18.3-28.6-25.2-79.9-27.1-87.3
		c-1.9-7.4-5.8-37.9-5.4-61c0.1-6.5,0.2-12.1,0.5-16.6c0.5-8.5,1.6-13.3,4.2-13.5c5.8-0.5,9.7,15,12.4,32.1
		c3.2,20.6,4.7,43.5,5.7,43.4c2-0.3,0-34.5-1.4-56.6c-0.3-4.4-0.5-8.9-0.6-13.3c-0.5-17.7,0.7-33.8,7.5-35
		c9.9-1.8,9.2,17.7,12.4,40.2c1.2,8.3,2,18.5,2.7,28.1c1.1,16.4,1.8,31,3.1,30.8c1.8-0.3,1.4-26,2.1-58.9c0.1-4.9,0.2-9.9,0.4-15.1
		c1.3-38.5,4-40.6,11.5-40.3c4.2,0.1,6.3,8.4,7.6,22.2c0.6,6.2,0.9,13.6,1.2,21.9c0,1.1,0.1,2.2,0.1,3.3c0.6,16.4,1.4,35.2,2.2,48.4
		c0.6,9.8,1.1,16.5,1.5,16.6c2,0.5,2.8-1.9,4.3-22.2c0.4-6.1,0.8-15.9,1.2-26.6c1.1-24.8,3.3-54.5,10.6-54.4
		c13.2,0.2,11.7,67,11.8,72.1c0.1,5.1,0.6,57.2,4.6,57.6c4.1,0.4,7.5-7.6,13.7-19.2c6.2-11.6,16.8-27.4,27.1-20
		c4.9,3.5-10.2,32.8-11.4,52.7c-1.2,19.9-13,38.7,4.2,63C346.4,331.6,558.7,488.5,553.1,498.8z"/>
	<path style="clip-path:url(#SVGID_00000051354619815575168170000012446398234412174987_);fill:#AE2573;" d="M286.4,391.9
		c1.2-7.8,51.8-63.7,66.6-70c6.1-2.6,15.5,9.7,23.4,18.6c7.4,8.2-69.2,71.4-69.2,71.4S285.5,397.7,286.4,391.9z"/>
	<path style="clip-path:url(#SVGID_00000051354619815575168170000012446398234412174987_);fill:#AE2573;" d="M576.2,503.2
		c-1.6,2.4-3.2,4.7-5.1,7c-0.5,0.7-1.1,1.4-1.7,2c-0.7,0.9-1.4,1.7-2.2,2.6c-0.6,0.7-1.2,1.3-1.8,2c-1.8,2-3.8,3.8-5.7,5.6
		c-0.3,0.3-0.5,0.5-0.8,0.7c-0.4,0.4-0.9,0.8-1.3,1.2c-2.1,1.9-4.3,3.6-6.6,5.2c-0.9,0.6-1.8,1.3-2.7,1.9c-1,0.7-2,1.3-3,2
		c-0.4,0.2-0.8,0.5-1.2,0.7c-0.6,0.4-1.2,0.7-1.8,1.1c-0.8,0.5-1.6,0.9-2.4,1.4c-0.4,0.2-0.8,0.5-1.2,0.7c-0.2,0.1-0.4,0.2-0.5,0.3
		c-0.4,0.2-0.8,0.4-1.1,0.6c-0.4,0.2-0.7,0.4-1.1,0.6c-0.6,0.3-1.3,0.7-1.9,1c-1.7,0.9-3.4,1.7-5.2,2.5c-4.9,2.2-10,4.2-15.2,5.9
		c-2.7,0.9-5.4,1.7-8.2,2.5h0c-1,0.3-2.1,0.6-3.1,0.9c-12.5,3.4-25.6,5.8-38.7,7.7c-3,0.4-6,0.9-9,1.2h0c-1.2,0.2-2.3,0.3-3.5,0.5
		c-3.9,0.5-7.8,1-11.7,1.4c-64.7-67-139.1-145.4-139-152c0-0.7,0.3-1.7,0.7-2.8c0.6-1.6,1.7-3.5,3.1-5.7
		c10.8-16.9,41.5-49.9,59.2-63.1c2.8-2.1,5.4-3.7,7.4-4.7c1.3-0.6,2.3-0.9,3.2-1C381.2,332.7,501.9,437.9,576.2,503.2z"/>
	<g style="clip-path:url(#SVGID_00000051354619815575168170000012446398234412174987_);">
		<g>
			<path class="st5" d="M320.3,109.2c-0.6,0-1.2-0.2-1.7-0.5c-1.6-0.9-2.1-2.8-1.2-4.4l24.8-41.8c0.9-1.6,2.8-2,4.5-1.1
				c1.6,0.9,2.1,2.8,1.2,4.4L323,107.6C322.4,108.6,321.4,109.2,320.3,109.2z"/>
		</g>
	</g>
	<g style="clip-path:url(#SVGID_00000051354619815575168170000012446398234412174987_);">
		<g>
			<path class="st3" d="M368.1,217.5c14.8-2.6,29.6-5.2,44.4-7.8c2.1-0.4,4.1-0.7,6.2-1.1c2.5-0.4,1.4-4.3-1.1-3.8
				c-14.8,2.6-29.6,5.2-44.4,7.8c-2.1,0.4-4.1,0.7-6.2,1.1C364.5,214.1,365.6,217.9,368.1,217.5L368.1,217.5z"/>
			<path class="st5" d="M367.7,218.8c-1,0-1.9-0.4-2.5-1.2c-0.8-0.9-1.1-2.3-0.7-3.3c0.4-1,1.2-1.7,2.3-1.9l50.6-8.9
				c1.2-0.2,2.4,0.2,3.1,1.1c0.8,0.9,1.1,2.3,0.7,3.3c-0.4,1-1.2,1.7-2.3,1.9l-50.6,8.9C368.1,218.8,367.9,218.8,367.7,218.8z"/>
		</g>
	</g>
	<g style="clip-path:url(#SVGID_00000051354619815575168170000012446398234412174987_);">
		<g>
			<path class="st5" d="M161.6,109.4c-1,0-2-0.4-2.7-1.5l-32.2-49.8c-1-1.5-0.6-3.3,1-4.3c1.4-0.9,3.5-0.9,4.6,0.9l32.2,49.8
				c1,1.5,0.6,3.3-1,4.3C162.9,109.2,162.2,109.4,161.6,109.4z"/>
		</g>
	</g>
	<g style="clip-path:url(#SVGID_00000051354619815575168170000012446398234412174987_);">
		<g>
			<path class="st5" d="M129,228c-0.1,0-0.2,0-0.3,0l-58.7-7.8c-1.9-0.2-3.1-1.6-3.1-3.3c0-0.9,0.5-1.9,1.2-2.5
				c0.6-0.6,1.4-0.8,2.2-0.7l58.7,7.8c1.9,0.2,3.1,1.6,3.1,3.3c0,0.9-0.5,1.9-1.2,2.5C130.3,227.7,129.7,228,129,228z"/>
		</g>
	</g>
	<g style="clip-path:url(#SVGID_00000051354619815575168170000012446398234412174987_);">
		<g>
			<path class="st5" d="M131.8,176.4c-0.6,0-1.1-0.2-1.6-0.5l-32.3-18.8c-1-0.6-1.6-1.6-1.6-2.7c0-1.2,0.7-2.4,1.7-3
				c1-0.6,2.1-0.5,3.1,0l32.3,18.8c1,0.6,1.6,1.6,1.6,2.7c0,1.2-0.7,2.4-1.7,3C132.8,176.3,132.3,176.4,131.8,176.4z"/>
		</g>
	</g>
	<g style="clip-path:url(#SVGID_00000051354619815575168170000012446398234412174987_);">
		<g>
			<path class="st5" d="M272.5,79.2c-0.8,0-1.7-0.3-2.3-0.9c-0.9-0.8-1.3-1.9-1.1-3.1l11.6-62.4c0.2-1.1,0.9-1.9,1.9-2.3
				c1.1-0.4,2.4-0.1,3.3,0.7c0.9,0.8,1.3,1.9,1.1,3.1l-11.6,62.4c-0.2,1.1-0.9,1.9-1.9,2.3C273.2,79.1,272.8,79.2,272.5,79.2z"/>
		</g>
	</g>
	<g style="clip-path:url(#SVGID_00000051354619815575168170000012446398234412174987_);">
		<g>
			<path class="st5" d="M349,160c-0.4,0-0.9-0.1-1.3-0.3c-1.2-0.5-2-1.5-2.2-2.6c-0.1-1,0.3-2,1.1-2.7l52.5-41.4
				c1.7-1.3,3.8-0.7,4.9,0.6c1.1,1.4,0.9,3.1-0.5,4.2L351,159.2C350.4,159.7,349.7,160,349,160z"/>
		</g>
	</g>
	<g style="clip-path:url(#SVGID_00000051354619815575168170000012446398234412174987_);">
		<g>
			<path class="st5" d="M218.9,80.2c-1.5,0-2.6-1-2.9-2.5l-6-41.1c-0.2-1.2,0.3-2.4,1.3-3.2c1-0.8,2.3-1,3.3-0.6
				c0.9,0.4,1.6,1.2,1.7,2.3l6,41.1c0.3,2.1-1.3,3.7-3,3.9C219.2,80.2,219.1,80.2,218.9,80.2z"/>
		</g>
	</g>
	<g style="clip-path:url(#SVGID_00000051354619815575168170000012446398234412174987_);">
		<path class="st30" d="M324,227c-0.9,2.8-5.4,13.9-7.1,15c-6.4,12.9-15,29.2-17.4,40c-4.3,19.5-12.5,38.8-24.7,51.4
			c-4.4,4.6-10.9,9-17.7,13.2c-12.1-9.1-29.2-23.1-36-33.8c-18.3-28.6-25.2-79.9-27.1-87.3c-1.9-7.4-5.8-37.9-5.4-61
			c0.1-6.5,0.2-12.1,0.5-16.6c0,0,0-0.1,0-0.1c0.5-1.3,1.3-2.1,2.3-2.3c0,0,0,0,0,0c0.3-0.1,0.6-0.1,1-0.1c1.3,0.1,2.5,0.9,3.1,2.6
			c7.9,13.4,1,74.8,2.6,74.8c2,0,5.4-34.1,7.6-56.1c0-0.1,0-0.1,0-0.2c0.9-9.1,2-18.5,3.7-26.5c1.7-8.4,4-15.2,7.1-18.2
			c1.2-1.6,2.8-2.2,4.5-2c2,0.2,3.7,1.5,4.5,3.9c2.9,6.5,0.8,21.3,0.5,38c-0.4,22.7-5.8,59.1-3.6,59.1c1.7,0,4.7-20.3,9.5-47.6
			c1.4-7.9,2.9-16.3,4.6-25.1c0.2-1,0.4-2,0.6-3c4.5-22.6,7.3-31.2,10.7-34.1c1.2-1.7,2.9-2.4,4.7-2.1c1.7,0.2,3.2,1.2,4.1,3
			c0.6,6.2,0.9,13.6,1.2,21.9c0,1.1,0.1,2.2,0.1,3.3c-0.5,5.3-1.1,11.4-1.9,17.9c-3.6,28.9-8,67.7-7,68.1c1.9,0.8,3-1.4,7.7-21.2
			c1-4.1,2.1-9.8,3.4-16.4c2-9.9,4.4-21.6,7-32.1c2.4-9.6,5-18.2,7.8-23.6c1.2-4.6,4.3-6.3,6.3-6.1c2.2,0.2,4.6,2.6,4.8,7.1
			c4.1,17.4-4,62-4.6,66.2c-0.7,5-12.1,67.5-8.2,68.6c4,1.1,12.3-17.3,20.2-27.8c7.9-10.4,21.8-19.6,29.9-15.5
			c0.2,0.1,0.4,0.3,0.5,0.6C324.7,223.2,324.7,224.6,324,227z"/>
		<g>
			<path class="st34" d="M321,222.1c-8.1-4.1-22,5-29.9,15.5c-7.9,10.5-16.2,28.8-20.2,27.8c-4-1.1,7.4-63.6,8.2-68.6
				c0.7-5,12.8-70.8-0.2-73c-10.3-1.8-19.8,58.2-24.5,78c-4.7,19.8-5.8,22-7.7,21.2c-1-0.4,3.4-39.2,7-68.1
				c3.3-26.3,4.2-43.7-1.7-44.9c-7.4-1.4-10.4,0.2-17.7,38c-7.6,39-12,72.6-14.1,72.6s3.2-36.4,3.6-59.1c0.4-22.7,4.1-41.8-5.9-41.6
				c-8.6,0.2-12.2,24.7-14.4,46.6c-2.2,22-5.6,56.1-7.6,56.1c-1.8,0,6.9-76.4-6-77.3c-4-0.3-6.1,10.7-9.4,29
				c-4,22.8-5,53.5-4.3,61.1c0.7,7.6-11.9,72.8-9.4,84c2,8.7-33.2,39.7-49,53.1l0,0v0c-4.6,3.9-7.6,6.3-7.6,6.3l-3.5,3.3
				c-40.3,37.8-142.1,138-142.1,138l139.1-4.3l61.4-78.7c12.6-15,52.7-62.7,57.9-69.4c7.2-9.3,36.8-21.3,49.6-34.4
				c12.2-12.5,20.4-31.9,24.7-51.4C301.6,262.5,326.5,224.9,321,222.1z"/>
			<path class="st6" d="M193.5,151c-0.2,3.9-2,7-4,6.8c-2-0.1-3.4-3.4-3.2-7.2c0.2-3.9,1.8-5.4,3.8-5.3
				C192.1,145.4,193.7,147.1,193.5,151z"/>
			<path class="st6" d="M223.5,129c-0.7,6.1-3.9,10.8-7,10.4c-3.2-0.4-5.1-5.7-4.4-11.8c0.7-6.1,3.4-8.4,6.6-8
				C221.9,120,224.3,122.9,223.5,129z"/>
			<path class="st6" d="M255.1,118.2c-0.7,6.1-3.9,10.8-7,10.4c-3.2-0.4-5.1-5.7-4.4-11.8c0.7-6.1,3.4-8.4,6.6-8
				C253.4,109.2,255.8,112.1,255.1,118.2z"/>
			<path class="st6" d="M283.6,133.1c-0.7,6.1-3.9,10.8-7,10.4c-3.2-0.4-5.1-5.7-4.4-11.8c0.7-6.1,4.4-8.4,6.7-8.2
				C281.5,123.7,284.4,126.9,283.6,133.1z"/>
			<path class="st6" d="M320.7,222.5c1.7-0.1,2,1.4,1.1,4.4c-1,3-6,15.6-7.5,15.1c-1.4-0.4-1.9-4.7-1-7.6
				C314.1,231.7,318.6,222.6,320.7,222.5z"/>
		</g>
	</g>
	<g style="clip-path:url(#SVGID_00000051354619815575168170000012446398234412174987_);">
		<path class="st5" d="M157.9,320.4c2.9,3.5,66,57.9,66,57.9l-33.2,39.6l-75-65.7L157.9,320.4z"/>
		<path class="st5" d="M173.1,452.7c-10.5,10-19.9,35-40.6,58.5c-9.2,10.4-39.1,42.7-71.4,77.2c-2.5-1.4-5.3-2.5-8.4-3.3
			c-3.7-1-7.8-1.6-12.1-2c-2-0.2-4-0.3-6.2-0.4c0,0,0,0,0,0c-2.5-0.1-5.1-0.2-7.7-0.3c-9.4-0.3-19.6-0.5-30.1-2
			c-1.1-0.1-2.2-0.3-3.3-0.5c-1.9-0.3-3.7-0.6-5.6-1h0c-0.4-0.1-0.8-0.2-1.2-0.3c-10.6-2.3-21.4-6.3-31.9-13.2
			c-1.2-0.8-2.5-1.6-3.7-2.6c-0.9-0.6-1.7-1.3-2.6-1.9c-0.3-0.2-0.6-0.5-0.9-0.7c-1.3-1-2.6-2.1-3.8-3.1c-1.7-1.5-3.3-3-4.8-4.6
			c-1.4-1.5-2.8-3-4-4.5c-6-7.3-9.9-15-12.3-22.9c9.3-10.2,19-20.9,28.7-31.4c9.8-10.7,19.4-21.1,28.3-30.7
			c16-17.2,29.5-31.4,36.8-38.4c15.6-15,45.7-41.3,61-49.5c8.4-4.5,23.6-28.1,38.4-23.1c2.1,1.5,6,4.8,11,9
			c16.7,14.3,45.4,40,57.9,51.2c3.8,3.4,6.1,5.5,6.1,5.5C191.8,425.7,191.2,435.5,173.1,452.7z"/>
		<ellipse transform="matrix(0.4034 -0.915 0.915 0.4034 -339.4682 314.8709)" class="st7" cx="71.7" cy="417.8" rx="21" ry="21"/>
		<path class="st7" d="M147.5,413.1c2.2-2.5,1.9-6.3-0.6-8.4c-2.5-2.2-6.3-1.9-8.4,0.6c-2.2,2.5-1.9,6.3,0.6,8.4
			C141.6,415.8,145.4,415.6,147.5,413.1z"/>
		<path class="st7" d="M126.1,451c2.2-2.5,1.9-6.3-0.6-8.4c-2.5-2.2-6.3-1.9-8.4,0.6c-2.2,2.5-1.9,6.3,0.6,8.4
			C120.2,453.8,124,453.5,126.1,451z"/>
		<path class="st8" d="M10.5,469.5c2.2-2.5,1.9-6.3-0.6-8.4c-2.5-2.2-6.3-1.9-8.4,0.6c-2.2,2.5-1.9,6.3,0.6,8.4
			C4.5,472.3,8.3,472,10.5,469.5z"/>
		<path class="st7" d="M109,398.1c2.2-2.5,1.9-6.3-0.6-8.4c-2.5-2.2-6.3-1.9-8.4,0.6c-2.2,2.5-1.9,6.3,0.6,8.4
			S106.8,400.6,109,398.1z"/>
		<path class="st7" d="M161.2,451.9c3.9-4.5,3.5-11.4-1-15.3c-4.5-3.9-11.4-3.5-15.3,1c-3.9,4.5-3.5,11.4,1,15.3
			C150.4,456.8,157.2,456.4,161.2,451.9z"/>
	</g>
	<path style="clip-path:url(#SVGID_00000051354619815575168170000012446398234412174987_);fill:#FCE300;" d="M328.8,414.4
		c5.7,6.3,11.3,12.6,17,18.9c8.9,9.9,17.9,19.9,26.8,29.8c2,2.3,4.1,4.6,6.1,6.8c1.2,1.4,3.2-0.7,2-2.1c-5.7-6.3-11.3-12.6-17-18.9
		c-8.9-9.9-17.9-19.9-26.8-29.8c-2-2.3-4.1-4.6-6.1-6.8C329.6,411,327.6,413.1,328.8,414.4L328.8,414.4z"/>
	<path style="clip-path:url(#SVGID_00000051354619815575168170000012446398234412174987_);fill:#FCE300;" d="M386.4,369
		c2.1,1.8,4.2,3.5,6.4,5.3c5.1,4.3,10.2,8.5,15.3,12.8c6.2,5.2,12.3,10.3,18.5,15.5c5.3,4.5,10.7,8.9,16,13.4
		c2.6,2.2,5.1,4.4,7.7,6.5c0,0,0.1,0.1,0.1,0.1c1.4,1.2,3.4-0.9,2-2.1c-2.1-1.8-4.2-3.5-6.4-5.3c-5.1-4.3-10.2-8.5-15.3-12.8
		c-6.2-5.2-12.3-10.3-18.5-15.5c-5.3-4.5-10.7-8.9-16-13.4c-2.6-2.2-5.1-4.4-7.7-6.5c0,0-0.1-0.1-0.1-0.1
		C387,365.7,385,367.8,386.4,369L386.4,369z"/>
	<path style="clip-path:url(#SVGID_00000051354619815575168170000012446398234412174987_);fill:#FCE300;" d="M348.4,374.6
		c6,5.1,11.9,10.3,17.9,15.4c9.4,8.1,18.8,16.2,28.3,24.4c2.2,1.9,4.3,3.7,6.5,5.6c1.4,1.2,3.4-0.9,2-2.1
		c-6-5.1-11.9-10.3-17.9-15.4c-9.4-8.1-18.8-16.2-28.3-24.4c-2.2-1.9-4.3-3.7-6.5-5.6C349,371.4,347,373.4,348.4,374.6L348.4,374.6z
		"/>
	<path style="clip-path:url(#SVGID_00000051354619815575168170000012446398234412174987_);fill:#FCE300;" d="M353.3,407.9
		c2,1.9,4,3.8,6,5.7c4.8,4.6,9.7,9.2,14.5,13.8c5.8,5.5,11.6,11.1,17.4,16.6c5,4.8,10.1,9.6,15.1,14.4c2.4,2.3,4.8,4.8,7.4,7
		c0,0,0.1,0.1,0.1,0.1c1.3,1.3,3.3-0.8,2-2.1c-2-1.9-4-3.8-6-5.7c-4.8-4.6-9.7-9.2-14.5-13.8c-5.8-5.5-11.6-11.1-17.4-16.6
		c-5-4.8-10.1-9.6-15.1-14.4c-2.4-2.3-4.8-4.8-7.4-7c0,0-0.1-0.1-0.1-0.1C354,404.6,352,406.6,353.3,407.9L353.3,407.9z"/>
	<path style="clip-path:url(#SVGID_00000051354619815575168170000012446398234412174987_);fill:#AE2573;" d="M435.8,436.2
		c6.2,5.3,12.3,10.6,18.5,15.9c9.8,8.4,19.7,16.9,29.5,25.3c2.3,1.9,4.5,3.9,6.8,5.8c1.4,1.2,3.4-0.9,2-2.1
		c-6.2-5.3-12.3-10.6-18.5-15.9c-9.8-8.4-19.7-16.9-29.5-25.3c-2.3-1.9-4.5-3.9-6.8-5.8C436.4,432.9,434.4,435,435.8,436.2
		L435.8,436.2z"/>
	<path style="clip-path:url(#SVGID_00000051354619815575168170000012446398234412174987_);fill:#AE2573;" d="M471.3,425.4
		c2.1,1.8,4.2,3.7,6.4,5.5c5.1,4.4,10.1,8.8,15.2,13.2c6.2,5.4,12.3,10.7,18.5,16.1c5.3,4.6,10.6,9.2,15.9,13.8
		c2.6,2.3,5.1,4.6,7.8,6.8c0,0,0.1,0.1,0.1,0.1c1.4,1.2,3.4-0.9,2-2.1c-2.1-1.8-4.2-3.7-6.4-5.5c-5.1-4.4-10.1-8.8-15.2-13.2
		c-6.2-5.4-12.3-10.7-18.5-16.1c-5.3-4.6-10.6-9.2-15.9-13.8c-2.6-2.3-5.1-4.6-7.8-6.8c0,0-0.1-0.1-0.1-0.1
		C471.9,422.1,469.9,424.2,471.3,425.4L471.3,425.4z"/>
	<path style="clip-path:url(#SVGID_00000051354619815575168170000012446398234412174987_);fill:#AE2573;" d="M432.5,461.1
		c2.4,2.1,4.7,4.3,7.1,6.4c5.6,5.1,11.3,10.3,16.9,15.4c6.8,6.2,13.6,12.4,20.4,18.6c5.9,5.4,11.8,10.8,17.7,16.2
		c2.9,2.6,5.6,5.3,8.6,7.8c0,0,0.1,0.1,0.1,0.1c1.4,1.2,3.3-0.8,2-2.1c-2.4-2.1-4.7-4.3-7.1-6.4c-5.6-5.1-11.3-10.3-16.9-15.4
		c-6.8-6.2-13.6-12.4-20.4-18.6c-5.9-5.4-11.8-10.8-17.7-16.2c-2.9-2.6-5.6-5.3-8.6-7.8c0,0-0.1-0.1-0.1-0.1
		C433.1,457.8,431.1,459.8,432.5,461.1L432.5,461.1z"/>
	<path style="clip-path:url(#SVGID_00000051354619815575168170000012446398234412174987_);fill:#AE2573;" d="M402.7,477.2
		c5.7,5.8,11.3,11.6,17,17.5c9,9.2,17.9,18.4,26.9,27.6c2.1,2.1,4.1,4.2,6.2,6.3c1.3,1.3,3.3-0.8,2-2.1c-5.7-5.8-11.3-11.6-17-17.5
		c-9-9.2-17.9-18.4-26.9-27.6c-2.1-2.1-4.1-4.2-6.2-6.3C403.4,473.8,401.4,475.9,402.7,477.2L402.7,477.2z"/>
</g>
</svg>
