<?xml version="1.0" encoding="utf-8"?>
<!-- Generator: Adobe Illustrator 25.4.1, SVG Export Plug-In . SVG Version: 6.00 Build 0)  -->
<svg version="1.1" id="Calque_1" xmlns="http://www.w3.org/2000/svg" xmlns:xlink="http://www.w3.org/1999/xlink" x="0px" y="0px"
	 viewBox="0 0 500 500" style="enable-background:new 0 0 500 500;" xml:space="preserve">
<style type="text/css">
	.st0{clip-path:url(#SVGID_00000129206152756464953930000007431819803823226017_);fill:#1D428A;}
	.st1{clip-path:url(#SVGID_00000129206152756464953930000007431819803823226017_);fill:#720062;}
	.st2{clip-path:url(#SVGID_00000129206152756464953930000007431819803823226017_);}
	.st3{fill:#F9423A;}
	.st4{opacity:0.26;fill:#7C4B31;}
	.st5{fill:#FCE300;}
	.st6{fill:#00B398;}
	.st7{fill:#AE2573;}
	.st8{fill:#1D428A;}
	.st9{clip-path:url(#SVGID_00000129206152756464953930000007431819803823226017_);fill:#00B398;}
	.st10{clip-path:url(#SVGID_00000109726182838044987120000014169847088278663044_);fill:#1D428A;}
	.st11{clip-path:url(#SVGID_00000109726182838044987120000014169847088278663044_);fill:#720062;}
	.st12{clip-path:url(#SVGID_00000109726182838044987120000014169847088278663044_);}
	.st13{clip-path:url(#SVGID_00000109726182838044987120000014169847088278663044_);fill:#00B398;}
	.st14{clip-path:url(#SVGID_00000101785924168655859970000013171171122182198699_);fill:#1D428A;}
	.st15{clip-path:url(#SVGID_00000101785924168655859970000013171171122182198699_);fill:#720062;}
	.st16{clip-path:url(#SVGID_00000101785924168655859970000013171171122182198699_);}
	.st17{clip-path:url(#SVGID_00000101785924168655859970000013171171122182198699_);fill:#00B398;}
	.st18{clip-path:url(#SVGID_00000113352716831789007680000003837133829894872250_);fill:#1D428A;}
	.st19{clip-path:url(#SVGID_00000113352716831789007680000003837133829894872250_);fill:#720062;}
	.st20{clip-path:url(#SVGID_00000113352716831789007680000003837133829894872250_);}
	.st21{clip-path:url(#SVGID_00000113352716831789007680000003837133829894872250_);fill:#00B398;}
	.st22{clip-path:url(#SVGID_00000071552833083337719920000012964701848334117014_);fill:#1D428A;}
	.st23{clip-path:url(#SVGID_00000071552833083337719920000012964701848334117014_);fill:#78BE20;}
	.st24{clip-path:url(#SVGID_00000071552833083337719920000012964701848334117014_);}
	.st25{fill:#78BE20;}
	.st26{clip-path:url(#SVGID_00000071552833083337719920000012964701848334117014_);fill:#AE2573;}
	.st27{clip-path:url(#SVGID_00000085933724208294807650000017370691358992194440_);fill:#FCE300;}
	.st28{clip-path:url(#SVGID_00000085933724208294807650000017370691358992194440_);fill:#AE2573;}
	.st29{clip-path:url(#SVGID_00000085933724208294807650000017370691358992194440_);}
	.st30{opacity:0.26;fill:#7FA0AC;}
	.st31{clip-path:url(#SVGID_00000068662973330083911240000014678291351449671074_);fill:#D2948B;}
	.st32{clip-path:url(#SVGID_00000068662973330083911240000014678291351449671074_);fill:#AE2573;}
	.st33{clip-path:url(#SVGID_00000068662973330083911240000014678291351449671074_);}
	.st34{fill:#F9E8D8;}
	.st35{clip-path:url(#SVGID_00000068662973330083911240000014678291351449671074_);fill:#FCE300;}
	.st36{clip-path:url(#SVGID_00000119077300517165482800000005481519066568677541_);fill:#1D428A;}
	.st37{clip-path:url(#SVGID_00000119077300517165482800000005481519066568677541_);fill:#720062;}
	.st38{clip-path:url(#SVGID_00000119077300517165482800000005481519066568677541_);}
	.st39{clip-path:url(#SVGID_00000119077300517165482800000005481519066568677541_);fill:#00B398;}
	.st40{clip-path:url(#SVGID_00000088094789550363720650000005168314668306706313_);fill:#1D428A;}
	.st41{clip-path:url(#SVGID_00000088094789550363720650000005168314668306706313_);fill:#720062;}
	.st42{clip-path:url(#SVGID_00000088094789550363720650000005168314668306706313_);}
	.st43{clip-path:url(#SVGID_00000088094789550363720650000005168314668306706313_);fill:#00B398;}
	.st44{clip-path:url(#SVGID_00000136405934354855676030000006942736130676275869_);fill:#1D428A;}
	.st45{clip-path:url(#SVGID_00000136405934354855676030000006942736130676275869_);fill:#720062;}
	.st46{clip-path:url(#SVGID_00000136405934354855676030000006942736130676275869_);}
	.st47{clip-path:url(#SVGID_00000136405934354855676030000006942736130676275869_);fill:#00B398;}
	.st48{fill:#FFFFFF;}
	.st49{fill:#8DC8E8;}
	.st50{fill:#A4D3ED;}
	.st51{fill:#008672;}
	.st52{fill:#F1F2F2;}
	.st53{clip-path:url(#SVGID_00000106846725186614765080000013448100009615777162_);fill:#1D428A;}
	.st54{clip-path:url(#SVGID_00000106846725186614765080000013448100009615777162_);fill:#720062;}
	.st55{clip-path:url(#SVGID_00000106846725186614765080000013448100009615777162_);}
	.st56{clip-path:url(#SVGID_00000106846725186614765080000013448100009615777162_);fill:#00B398;}
	.st57{clip-path:url(#SVGID_00000013901844280795863750000014292337113517462714_);fill:#1D428A;}
	.st58{clip-path:url(#SVGID_00000013901844280795863750000014292337113517462714_);fill:#720062;}
	.st59{clip-path:url(#SVGID_00000013901844280795863750000014292337113517462714_);}
	.st60{clip-path:url(#SVGID_00000013901844280795863750000014292337113517462714_);fill:#00B398;}
	.st61{clip-path:url(#SVGID_00000144296909677949308100000006121957936304236960_);}
	.st62{fill:#D5CB9F;}
	.st63{fill:#720062;}
	.st64{fill:#EF8070;}
	.st65{clip-path:url(#SVGID_00000025434059567968709640000006218286569776158631_);}
	.st66{clip-path:url(#SVGID_00000028289806179571155930000000728659101543129240_);}
	.st67{fill:#EFCAA6;}
	.st68{fill:#D2948B;}
	.st69{fill:#F4D9BF;}
	.st70{fill:none;stroke:#FFFFFF;stroke-width:3;stroke-miterlimit:10;}
	.st71{clip-path:url(#SVGID_00000118363105670818076700000015524952082980653722_);fill:#D2948B;}
	.st72{clip-path:url(#SVGID_00000118363105670818076700000015524952082980653722_);fill:#AE2573;}
	.st73{clip-path:url(#SVGID_00000118363105670818076700000015524952082980653722_);}
	.st74{clip-path:url(#SVGID_00000118363105670818076700000015524952082980653722_);fill:#FCE300;}
	.st75{clip-path:url(#SVGID_00000062165980992319941780000018006868211120152213_);fill:#D2948B;}
	.st76{clip-path:url(#SVGID_00000062165980992319941780000018006868211120152213_);fill:#AE2573;}
	.st77{clip-path:url(#SVGID_00000062165980992319941780000018006868211120152213_);}
	.st78{clip-path:url(#SVGID_00000062165980992319941780000018006868211120152213_);fill:#FCE300;}
	.st79{clip-path:url(#SVGID_00000179616568046476382260000003640869916858678697_);fill:#D2948B;}
	.st80{clip-path:url(#SVGID_00000179616568046476382260000003640869916858678697_);fill:#AE2573;}
	.st81{clip-path:url(#SVGID_00000179616568046476382260000003640869916858678697_);}
	.st82{clip-path:url(#SVGID_00000179616568046476382260000003640869916858678697_);fill:#FCE300;}
</style>
<g>
	<path class="st49" d="M405.1,53.9C404,247.3,247.5,403.9,54.1,405c59.7,75.5,157.5,110,251.3,88.7
		c93.9-21.3,167.2-94.6,188.5-188.5C515.1,211.4,480.6,113.6,405.1,53.9z"/>
	<path class="st50" d="M405.1,53.9C305.7-24.9,162.9-16.6,73.2,73.1s-98,232.4-19.2,331.9C247.5,403.9,404,247.3,405.1,53.9z"/>
	<path class="st51" d="M370.7,103.4c-19,8.6-29.6-1.5-43.1,8.6c-16.7,12.6-23.4,45.2-8.6,69c10.5,16.8,29.3,21,50.5,25.6
		c21.5-44.1,33.5-92.2,35.3-141.2C398.6,81.8,386.4,95.3,370.7,103.4z"/>
	<path class="st6" d="M407.9,56.1c-0.8,3.1-1.8,6.2-3,9.2c-1.8,49-13.8,97.1-35.3,141.2l1.2,0.3c29.6,6.5,41-7.2,69,0
		c12.5,3.6,24.1,9.4,34.5,17.2c12,9.9,20.8,23,25.5,37.8c0.2-4,0.4-7.9,0.4-12C500.1,174.7,466.2,103.5,407.9,56.1z"/>
	<path class="st6" d="M241.4,353.3c17.1,18.9,21.6,50.8,8.6,69c-10.5,14.8-24.9,9.7-34.5,25.9c-7.2,13.5-7.2,29.6,0,43.1
		c1.3,2.4,2.9,4.7,4.7,6.8c9.9,1.2,19.8,1.8,29.7,1.8c91.2,0,175.1-49.6,219-129.5c-15.7-10.5-40.2-24.4-63.9-25.7
		c-24.3-2.4-48.6,3.7-69,17.2c-25.4,18.6-30.4,45-43.1,43.1c-9-1.3-13.9-15.8-17.2-25.9c-7.7-23-3.5-38.5-3.6-51.4
		c-10.5,8.4-21.5,16.2-32.9,23.4C240.2,352.1,241,352.8,241.4,353.3z"/>
	<path class="st51" d="M267.3,310.2c-8.9-12.4-25.4-14.7-43.1-17.2c-37.1-5.2-51.6,10.8-69,0c-14.1-9.4-21-26.5-17.2-43.1
		c7.2-21.6,38.9-14.3,77.6-43.1c12.5-9.2,42.2-31.4,43.1-60.3c0.9-28.4-26.8-36.5-34.5-69c-3.3-14,2.9-46.2,18.7-77.3
		C150,2.8,66.3,56.6,25.5,140v0.1c-5.5,30.6-5.4,62,0.4,92.6c5.3,34.7,10.1,66.3,34.5,94.8c10.7,12.6,27.2,31.7,51.7,34.5
		c27.2,3,63.2-14.4,69-17.2c7.7-5.1,16.6-8,25.9-8.6c12.3,0.8,23.9,6.2,32.4,15.1c11.4-7.2,22.4-15,32.9-23.4
		C272.6,321.6,270.8,315.4,267.3,310.2z"/>
	<path class="st7" d="M181.1,68.9c0,38.1-69,129.3-69,129.3s-43-56.9-61.1-99.6c-4.5-9.3-7.1-19.4-7.8-29.7c0-38.1,30.9-69,69-69
		C150.2-0.1,181.1,30.8,181.1,68.9z"/>
	<path class="st52" d="M138,60.3c0,14.3-11.6,25.9-25.9,25.9S86.2,74.5,86.2,60.3s11.6-25.9,25.9-25.9S138,46,138,60.3z"/>
	<path class="st5" d="M439.7,301.6c-1.9,16.2-7.2,31.8-15.4,45.8c-15.8,29.1-33.7,57-53.5,83.5c0,0-22.6-29.9-42-62.7
		c-7.1-11.9-13.5-24.2-19.1-36.9c-4.5-9.3-7.1-19.4-7.8-29.7c0-38.1,30.9-69,69-69C408.8,232.7,439.7,263.5,439.7,301.6z"/>
	<path class="st52" d="M396.6,293c0,14.3-11.6,25.9-25.9,25.9s-25.9-11.6-25.9-25.9s11.6-25.9,25.9-25.9S396.6,278.7,396.6,293z"/>
</g>
</svg>
