<svg xmlns="http://www.w3.org/2000/svg" width="83" height="83" viewBox="0 0 83 83"><g transform="translate(-0.5 -0.5)"><circle cx="41.5" cy="41.5" r="41.5" transform="translate(0.5 0.5)" fill="#b8166b"/><path d="M139.521,116.262c0-.287-.005-.573-.011-.859L128.6,104.487l-3.634-3.634L114.55,90.442l-.357-.357-.96-.96h0l-7.681,7.681.96.96-1.92,1.92-6.687,1.587-.932.265c-.062.018-.123.037-.184.056l-3.08-.731-3.478-3.478L82.549,89.7l-.96.96h0L68.147,104.107l-.96.96,11.159,11.159.99,4.169c.066.2.137.394.21.589l-2.2,2.2a3.4,3.4,0,0,0,0,4.8h0l-.021.021,9.6,9.6h0l4.8,4.8h0l14.627,14.627A41.644,41.644,0,0,0,139.521,116.262Z" transform="translate(-56.021 -74.391)" fill="#730d43"/><rect width="19.01" height="27.157" transform="translate(52.411 48.339) rotate(-135)" fill="#fff"/><rect width="9.504" height="27.157" transform="translate(52.41 48.339) rotate(-135)" fill="#e1e3fa"/><rect width="21.725" height="10.863" transform="translate(64.893 37.776) rotate(-135)" fill="#0f9390"/><rect width="10.863" height="10.863" transform="translate(64.894 37.777) rotate(-135)" fill="#0d6b69"/><path d="M167.578,190.415l-1.44-1.44-2.4-2.4-5.761-5.761-5.281-5.281-1.44-1.44a3.4,3.4,0,0,1,0-4.8h0l9.46-9.46a12.242,12.242,0,0,1,6.755-4.174l6.687-1.587,7.681,7.681.96.96,4.8,4.8-1.587,6.687a17.267,17.267,0,0,1-4.174,6.755l-9.46,9.46h0A3.4,3.4,0,0,1,167.578,190.415Z" transform="translate(-125.586 -128.777)" fill="#ffc477"/><rect width="19.01" height="27.157" transform="translate(12.127 29.715) rotate(-45)" fill="#fff"/><rect width="9.504" height="27.157" transform="translate(12.125 29.715) rotate(-45)" fill="#e1e3fa"/><rect width="21.725" height="10.863" transform="translate(11.167 30.675) rotate(-45)" fill="#0f9390"/><rect width="10.863" height="10.863" transform="translate(11.165 30.676) rotate(-45)" fill="#0d6b69"/><path d="M172.321,180.54l-11.915-11.9a3.4,3.4,0,0,0-.428-4.278h0l-.96-.96a17.271,17.271,0,0,0-6.755-4.174l-6.687-1.587-7.681,7.681-.96.96-4.8,4.8,1.587,6.687a17.267,17.267,0,0,0,4.174,6.755l.96.96,2.4,2.4.021-.021,11.868,11.9a3.4,3.4,0,0,0,4.8,0h0a3.4,3.4,0,0,0,0-4.8,3.4,3.4,0,0,0,4.8,0h0a3.394,3.394,0,0,0,.088-4.709,3.394,3.394,0,0,0,4.687-.108h0a3.4,3.4,0,0,0,0-4.8,3.4,3.4,0,0,0,4.8,0h0A3.394,3.394,0,0,0,172.321,180.54Z" transform="translate(-110.406 -131.761)" fill="#99590a"/><g transform="translate(20.33 25.295)"><path d="M191.98,164.633h0l.219-.219h0l3.02,1.538a7.108,7.108,0,0,0,8.283-1.319l3.841-3.841h0l-6.721-6.721h0l-6.687,1.587-.932.265a10.715,10.715,0,0,0-4.643,2.729l-1.179,1.179-4.321,4.321a3.4,3.4,0,0,0,0,4.8h0a3.4,3.4,0,0,0,4.8,0Z" transform="translate(-172.38 -154.072)" fill="#ffdaaa"/><path d="M133.069,270.482h0a3.4,3.4,0,0,0-4.8,0l-3.736,3.736a3.4,3.4,0,0,0,0,4.8h0a3.4,3.4,0,0,0,4.8,0l3.736-3.736A3.4,3.4,0,0,0,133.069,270.482Z" transform="translate(-123.538 -250.719)" fill="#ffdaaa"/><path d="M162.591,300h0a3.394,3.394,0,0,0-4.8,0l-3.736,3.736a3.4,3.4,0,0,0,0,4.8h0a3.4,3.4,0,0,0,4.8,0l3.736-3.736A3.4,3.4,0,0,0,162.591,300Z" transform="translate(-148.259 -275.44)" fill="#ffdaaa"/><path d="M191.949,329.623h0a3.4,3.4,0,0,0-4.8,0l-3.736,3.736a3.4,3.4,0,0,0,0,4.8h0a3.4,3.4,0,0,0,4.8,0l3.736-3.736A3.4,3.4,0,0,0,191.949,329.623Z" transform="translate(-172.843 -300.243)" fill="#ffdaaa"/><path d="M221.471,359.145h0a3.4,3.4,0,0,0-4.8,0l-3.736,3.736a3.4,3.4,0,0,0,0,4.8h0a3.4,3.4,0,0,0,4.8,0l3.736-3.736A3.394,3.394,0,0,0,221.471,359.145Z" transform="translate(-197.564 -324.964)" fill="#ffdaaa"/></g></g></svg>