<svg xmlns="http://www.w3.org/2000/svg" width="84" height="84" viewBox="0 0 84 84"><g transform="translate(-0.391 -0.391)"><circle cx="42" cy="42" r="42" transform="translate(0.391 0.391)" fill="#ffe529"/><path d="M153.987,168.69c0-1.216-.055-2.42-.156-3.61l-13.58-13.58L83.5,185.88l24.766,24.766c1.19.1,2.394.156,3.61.156A42.111,42.111,0,0,0,153.987,168.69Z" transform="translate(-69.613 -126.427)" fill="#dbb100"/><rect width="56.752" height="34.38" transform="translate(13.887 25.073)" fill="#fff"/><rect width="28.376" height="34.38" transform="translate(42.263 25.073)" fill="#e6e6e6"/><rect width="10.61" height="14.887" transform="translate(17.917 28.363)" fill="#0b7d78"/><rect width="5.511" height="14.887" transform="translate(23.016 28.363)" fill="#06a099"/><rect width="17.766" height="4.963" transform="translate(48.568 28.363)" fill="#1be5db"/><rect width="9.266" height="4.963" transform="translate(57.067 28.363)" fill="#0b7d78"/><rect width="8.499" height="4.963" transform="translate(48.568 28.363)" fill="#1be5db"/><rect width="3.29" height="27.471" transform="translate(40.618 28.692)" fill="#e0e0e0"/><rect width="1.645" height="27.471" transform="translate(42.263 28.692)" fill="silver"/><rect width="17.766" height="3.29" transform="translate(48.568 41.605)" fill="#e0e0e0"/><rect width="9.266" height="3.29" transform="translate(57.067 41.605)" fill="silver"/><rect width="17.766" height="3.29" transform="translate(48.568 47.204)" fill="#e0e0e0"/><rect width="9.266" height="3.29" transform="translate(57.067 47.204)" fill="silver"/><rect width="17.766" height="3.29" transform="translate(48.568 52.804)" fill="#e0e0e0"/><rect width="9.266" height="3.29" transform="translate(57.067 52.804)" fill="silver"/></g></svg>